<svg version="1.0" xmlns="http://www.w3.org/2000/svg" width="421.333" height="421.333" viewBox="0 0 316 316"><path d="M0 158v158h316V0H0v158zm136.3-93.4c1.5.3 2.7 1.2 2.7 2s.9 1.4 2 1.4c2 0 2.9.4 7.7 2.8 3.1 1.6 4.3 1.5 8.8-.8 2.2-1.1 4.5-2 5.2-2 .7 0 1.3-.6 1.3-1.4 0-1 2-1.7 6.8-2.3 12.6-1.5 29.2-.4 29.2 2 0 .7 2.1 1.9 4.8 2.6 7.3 2.2 10.9 4.2 12.1 6.7.6 1.3 1.9 2.4 3 2.4s2.3 1.2 3.1 3c.7 1.6 1.8 3 2.5 3s1.5 1.7 1.9 3.7c.3 2.1.6 41.3.6 87V258h-29v-83.5c0-73.6-.2-83.5-1.5-83.5-.8 0-1.5-.7-1.5-1.5 0-2.6-4.8-6.3-9-7-5.3-.9-13.2.4-15.2 2.5-.9 1-2.3 2-3 2.2-1.1.4-1.4 16.6-1.6 85.6L167 258h-30v-85.1c0-84.2 0-85.1-2-85.6-1.1-.3-2-1.1-2-1.8s-2.2-1.8-5-2.5c-6.5-1.6-13.6-.6-15 2.1-.6 1-1.9 1.9-2.9 1.9-1.1 0-2.2.7-2.5 1.6-.3.9-.6 39.3-.6 85.5V258H77v-86c0-56.7.3-86 1-86 .6 0 1-.7 1-1.6 0-1.5 6.6-8.4 8.1-8.4.5 0 1.6-.8 2.6-1.8 2.3-2.4 7-4.9 10.6-5.7 1.5-.3 2.7-1.2 2.7-1.9 0-1 1.8-1.6 5.8-2.1 3.1-.3 6.6-.8 7.7-1 2.4-.4 15.8.4 19.8 1.1z"/></svg>